<svg height="92" viewBox="0 0 100 92" width="100" xmlns="http://www.w3.org/2000/svg"><g fill="none" transform="translate(0 1)"><path d="m50.1026694.06160164c-25.0102669 0-45.29774127 20.28747436-45.29774127 45.29774126 0 .5749487.02053388 1.1498973.04106776 1.724846-2.64887063.349076-4.70225872 2.5667351-4.70225872 5.3182752 0 2.9774127 2.40246406 5.3798768 5.37987679 5.3798768h1.00616017c5.40041067 18.9938398 22.85420947 32.8952772 43.57289527 32.8952772 25.0308008 0 45.2977413-20.2874744 45.2977413-45.2977413 0-25.0308008-20.2874744-45.31827516-45.2977413-45.31827516z" fill="#ff473e"/><path d="m32.5462012 33.9014374v8.4804928c0 2.75154-2.2176591 4.9691992-4.9691991 4.9691992-2.7515401 0-4.9691992-2.2176592-4.9691992-4.9691992v-11.1498973z" fill="#2b3b47"/><path d="m77.761807 31.2320329v11.1498973c0 2.75154-2.2176592 4.9691992-4.9691992 4.9691992-2.75154 0-4.9691992-2.2176592-4.9691992-4.9691992v-8.4804928z" fill="#2b3b47"/><path d="m32.2997947 35.5852156c-.1642711 0-.3080083-.0205339-.4722793-.0616016l-10.5749487-3.1006161c-.8829568-.2669404-1.3963039-1.190965-1.1293634-2.0739219.2669404-.8829569 1.1909651-1.3963039 2.073922-1.1293635l10.5749486 3.100616c.8829569.2669405 1.3963039 1.1909651 1.1293635 2.073922-.2053388.7186858-.8829569 1.1909651-1.6016427 1.1909651z" fill="#d32a2a"/><path d="m67.8028747 35.5852156c-.6981519 0-1.3552361-.4517454-1.6016427-1.1498973-.2874743-.8829569.184805-1.8275154 1.0677618-2.1149898l11.1293635-3.6344969c.8829569-.2874743 1.8275154.184805 2.1149897 1.0677618.2874744.8829569-.1848049 1.8275154-1.0677618 2.1149898l-11.1293634 3.6344969c-.1642711.0616016-.3285421.0821355-.5133471.0821355z" fill="#d32a2a"/><path d="m62.3613963 65.2772074c-.4928131-4.2915811-3.8809035-10.1848049-11.724846-10.1848049-8.1519507 0-11.4989733 6.4065708-11.7659137 10.7186858-.0616017 1.1498973.4722792 2.238193 1.3963039 2.9158111.9240246.6776181 2.1560574.8418891 3.2238193.4312115.0205338 0 2.3408624-.862423 6.714579-.862423 4.5585216 0 7.7823409.9445585 7.8234086.9650924.3285421.1026694.6570842.1437372.9856263.1437372h.0205339c1.8685832 0 3.3880903-1.5195072 3.3880903-3.3880904.0205339-.2669404-.0205338-.513347-.0616016-.7392197z" fill="#2b3b47"/><path d="m95.3593429 47.3921971c.0205339-.677618.0616017-1.3552361.0616017-2.0328542 0-12.0944558-4.7433265-23.0800821-12.4845996-31.211499 4.3737166 7.084189 6.899384 15.4414785 6.899384 24.3942506 0 25.7084188-20.8418892 46.5297741-46.5503081 46.5297741-8.952772 0-17.2895277-2.5256674-24.3942505-6.899384 8.1314169 7.7412731 19.1170432 12.5051335 31.211499 12.5051335 20.5954826 0 37.9876797-13.7577002 43.4702259-32.587269h1.0472279c2.9774127 0 5.3798768-2.4024641 5.3798768-5.3798768 0-2.7310062-2.0328542-4.9486653-4.6406571-5.3182752z" fill="#d32a2a"/></g></svg>